<svg xmlns="http://www.w3.org/2000/svg" viewBox="0 0 143.25 20.58"><defs><style>.cls-1{fill:#fff;}</style></defs><g id="Capa_2" data-name="Capa 2"><g id="Capa_1-2" data-name="Capa 1"><path class="cls-1" d="M11.62,20.12v-.44c2-.4,2.13-.7,1.64-2.11-.37-1.11-1-2.9-1.7-4.89H5.82c-.57,1.59-1.08,3-1.48,4.23-.69,2-.37,2.3,2.15,2.77v.44H0v-.44c1.89-.32,2.33-.65,3.41-3.4L9.7.16l.68-.1c1.89,5.42,3.86,10.78,5.87,16.2,1,2.82,1.35,3,3.22,3.42v.44ZM8.77,4.61C7.82,7.14,7,9.41,6.16,11.74h5.07Z"/><path class="cls-1" d="M30,9.2c3.17.51,5.65,2.08,5.65,5.05a5.19,5.19,0,0,1-2.73,4.64,11.58,11.58,0,0,1-5.7,1.23H20v-.44c2.26-.41,2.5-.64,2.5-3.18V3.92c0-2.52-.31-2.63-2.5-3V.42h8.12a7.74,7.74,0,0,1,4.71,1.11,3.84,3.84,0,0,1,1.65,3.22C34.47,7.53,32,8.74,30,9.2ZM27.1,9.06c3,0,4-1.25,4-3.75,0-2.75-1.39-4.19-3.62-4.19a2.91,2.91,0,0,0-1.39.23c-.37.19-.42.6-.42,1.55V9.06Zm-1.42,7.56c0,2.15.8,2.78,2.62,2.78,2.15,0,3.72-1.61,3.72-4.86,0-3.09-1.38-4.79-4.91-4.79H25.68Z"/><path class="cls-1" d="M48.11,20.12v-.44c1.94-.4,2.12-.7,1.64-2.11-.38-1.11-1-2.9-1.71-4.89H42.31c-.57,1.59-1.09,3-1.48,4.23-.69,2-.37,2.3,2.15,2.77v.44h-6.5v-.44c1.9-.32,2.33-.65,3.42-3.4L46.18.16l.68-.1c1.9,5.42,3.87,10.78,5.88,16.2,1,2.82,1.34,3,3.21,3.42v.44ZM45.25,4.61c-1,2.53-1.72,4.8-2.6,7.13h5.06Z"/><path class="cls-1" d="M65,.42c3.72,0,6.52.85,8.35,2.56A8.54,8.54,0,0,1,76,9.53a9.83,9.83,0,0,1-3.65,8.11,12.18,12.18,0,0,1-7.8,2.48H56.47v-.44c2.26-.4,2.5-.6,2.5-3.19V4.06c0-2.61-.26-2.84-2.5-3.19V.42ZM62.17,15.94c0,2.58,1,3.35,3.55,3.35,4.49,0,6.67-3.35,6.67-9.24,0-3.26-1-6-3-7.46a7,7,0,0,0-4.75-1.46,4.15,4.15,0,0,0-2.13.4c-.34.23-.4.65-.4,1.74Z"/><path class="cls-1" d="M86.83.42c3.72,0,6.52.85,8.35,2.56a8.57,8.57,0,0,1,2.63,6.55,9.8,9.8,0,0,1-3.65,8.11,12.13,12.13,0,0,1-7.79,2.48H78.26v-.44c2.26-.4,2.5-.6,2.5-3.19V4.06c0-2.61-.26-2.84-2.5-3.19V.42ZM84,15.94c0,2.58,1,3.35,3.56,3.35,4.49,0,6.67-3.35,6.67-9.24,0-3.26-1-6-3-7.46a7,7,0,0,0-4.75-1.46,4.15,4.15,0,0,0-2.13.4c-.34.23-.4.65-.4,1.74Z"/><path class="cls-1" d="M110.93,0a9.77,9.77,0,0,1,9.75,10.06c0,6.34-4.43,10.52-9.89,10.52a9.84,9.84,0,0,1-9.9-10.1C100.89,5.19,104.64,0,110.93,0Zm-.59.73c-3.17,0-5.73,3-5.73,9,0,5.76,2.58,10.12,6.74,10.12,3.23,0,5.61-3.07,5.61-8.94C117,4.49,114.29.73,110.34.73Z"/><path class="cls-1" d="M143.25.87c-2.06.44-2.42.79-2.48,2.85,0,.88-.09,1.57-.09,4.54V20.51H140L126.41,4V12.1c0,2.85,0,3.75.09,4.74.1,1.95.39,2.45,3.05,2.84v.44h-7v-.44c2.27-.4,2.59-.79,2.69-2.79,0-1,.13-2.15.13-4.79V3.8A2.34,2.34,0,0,0,125,2.31a3.51,3.51,0,0,0-2.7-1.44V.42h5.25l12.21,14.47V8.26c0-3-.07-3.63-.11-4.55-.1-2-.69-2.52-3.28-2.84V.42h6.92Z"/></g></g></svg>