<svg xmlns="http://www.w3.org/2000/svg" viewBox="0 0 647.36 404.63"><defs><style>.cls-1{fill:#1d1d1b;}.cls-2{fill:none;}</style></defs><g id="Capa_2" data-name="Capa 2"><g id="Capa_1-2" data-name="Capa 1"><path class="cls-1" d="M52.53,342.76v-2c8.78-1.82,9.59-3.18,7.41-9.54-1.69-5-4.4-13.12-7.71-22.09H26.31c-2.57,7.17-4.91,13.62-6.69,19.12-3.1,9.23-1.67,10.36,9.71,12.51v2H0v-2c8.56-1.46,10.53-3,15.42-15.38l28.4-72.84,3.07-.45c8.58,24.48,17.48,48.74,26.57,73.23,4.6,12.72,6.07,13.61,14.51,15.44v2ZM39.61,272.65c-4.29,11.47-7.78,21.69-11.76,32.26H50.73Z" transform="translate(0)"/><path class="cls-1" d="M135.34,293.43c14.32,2.28,25.54,9.39,25.54,22.82,0,9.66-5,16.7-12.33,20.95-6.93,4-16.21,5.56-25.76,5.56H90.33v-2c10.2-1.83,11.29-2.88,11.29-14.37V269.57c0-11.39-1.37-11.9-11.29-13.82v-2H127c10.89,0,16.69,1.83,21.28,5a17.38,17.38,0,0,1,7.44,14.56C155.76,285.85,144.49,291.33,135.34,293.43Zm-12.86-.64c13.58,0,18.1-5.64,18.1-17,0-12.42-6.26-18.94-16.36-18.94-2.47,0-5.12.23-6.26,1-1.67.87-1.9,2.73-1.9,7v27.86Zm-6.42,34.14c0,9.74,3.6,12.55,11.85,12.55,9.69,0,16.8-7.24,16.8-21.94,0-14-6.25-21.66-22.21-21.66h-6.44Z" transform="translate(0)"/><path class="cls-1" d="M217.41,342.76v-2c8.78-1.82,9.59-3.18,7.41-9.54-1.69-5-4.4-13.12-7.71-22.09H191.19c-2.57,7.17-4.9,13.62-6.69,19.12-3.1,9.23-1.67,10.36,9.72,12.51v2H164.88v-2c8.56-1.46,10.53-3,15.42-15.38l28.4-72.84,3.07-.45c8.58,24.48,17.48,48.74,26.57,73.23,4.6,12.72,6.07,13.61,14.52,15.44v2Zm-12.92-70.11c-4.29,11.47-7.78,21.69-11.75,32.26h22.87Z" transform="translate(0)"/><path class="cls-1" d="M293.92,253.75c16.82,0,29.49,3.83,37.75,11.55,7.39,6.94,11.91,16.5,11.91,29.58,0,16.62-6.41,28.77-16.49,36.66s-21.55,11.22-35.23,11.22H255.21v-2c10.2-1.79,11.29-2.71,11.29-14.41V270.2c0-11.79-1.18-12.86-11.29-14.45v-2Zm-13,70.11C281,335.52,285.31,339,297,339c20.31,0,30.14-15.14,30.14-41.77,0-14.74-4.59-27-13.55-33.71-5.76-4.8-12.52-6.61-21.46-6.61-5,0-8.14.81-9.6,1.81s-1.84,2.95-1.84,7.84Z" transform="translate(0)"/><path class="cls-1" d="M392.38,253.75c16.82,0,29.5,3.83,37.75,11.55,7.39,6.94,11.91,16.5,11.91,29.58,0,16.62-6.4,28.77-16.49,36.66S404,342.76,390.32,342.76H353.67v-2c10.21-1.79,11.3-2.71,11.3-14.41V270.2c0-11.79-1.19-12.86-11.3-14.45v-2Zm-13,70.11c.09,11.66,4.37,15.17,16,15.17,20.3,0,30.14-15.14,30.14-41.77,0-14.74-4.6-27-13.55-33.71-5.77-4.8-12.52-6.61-21.47-6.61-5,0-8.13.81-9.6,1.81s-1.84,2.95-1.84,7.84Z" transform="translate(0)"/><path class="cls-1" d="M501.32,251.83c23.81,0,44.08,18.85,44.08,45.46,0,28.67-20,47.53-44.73,47.53-25.7,0-44.75-20.26-44.75-45.64C455.92,275.28,472.91,251.83,501.32,251.83Zm-2.69,3.28c-14.28,0-25.85,13.71-25.85,40.63,0,26,11.65,45.75,30.46,45.75,14.56,0,25.31-13.88,25.31-40.4C528.55,272.13,516.48,255.11,498.63,255.11Z" transform="translate(0)"/><path class="cls-1" d="M647.36,255.75c-9.28,2-10.9,3.57-11.17,12.88-.14,4-.41,7.09-.41,20.52v55.39h-3L571.29,270v36.55c0,12.88.19,16.95.41,21.42.46,8.83,1.76,11.06,13.77,12.84v2H554.08v-2c10.22-1.8,11.7-3.57,12.15-12.62.23-4.46.59-9.7.59-21.64V269a10.58,10.58,0,0,0-2.09-6.73c-3.47-4.56-6.51-5.56-12.2-6.52v-2h23.71l55.2,65.39v-30c0-13.43-.31-16.41-.5-20.54-.46-9.29-3.13-11.4-14.85-12.86v-2h31.27Z" transform="translate(0)"/><path class="cls-2" d="M200.24,32.28c33.65,23.4,45.12,45.12,54.41,79.62" transform="translate(0)"/><path class="cls-2" d="M324.34,117.28c-27.2-11.5-43.86-38.56-65.31-58.87" transform="translate(0)"/><path class="cls-1" d="M324.34,117.28c-27.2-11.5-43.86-38.56-65.31-58.87C230.06,31,175-8.86,107.35,1.76c-2.7.42-10.62,2.65-10.62,2.65,33.17-1.3,73,6.64,103.51,27.87,33.65,23.4,45.12,45.12,54.41,79.62,6.67-4.66,19-9.5,25.75-4.91s12.3,11.86,17.18,18.37,6.8,10.71,13.76,14.93C312,140.7,314,142,314,142c7.84,4.43,15.68,3.83,22.73-.24s10.33-9.93,15.17-16.37,10.46-13.77,17.18-18.37,19.08.25,25.75,4.91c9.29-34.5,20.76-56.22,54.41-79.62,30.52-21.23,70.34-29.17,103.5-27.87,0,0-7.91-2.23-10.61-2.65C474.44-8.86,419.41,31,390.44,58.41c-21.45,20.31-38.11,47.37-65.31,58.87" transform="translate(0)"/><path class="cls-2" d="M449.23,32.28c-33.65,23.4-45.12,45.12-54.41,79.62" transform="translate(0)"/><path class="cls-2" d="M325.13,117.28c27.2-11.5,43.86-38.56,65.31-58.87" transform="translate(0)"/><path class="cls-1" d="M123.89,399.63c-.15,1-.69,3.77-.89,4.55H108.71v-.43c2.6-.36,2.8-.54,2.8-3.13V388.31c0-2.65-.13-2.87-2.33-3.19v-.44h8.88c2.82,0,3.89,0,4.25-.06,0,1.11.14,3.12.27,4.26l-.46.08a8.49,8.49,0,0,0-1.17-2.55c-.55-.72-1.1-.86-2.87-.86h-2.61c-.69,0-.79.11-.79.8v7.09h3.19c2.25,0,2.41-.56,2.81-2.48h.45v5.84h-.45c-.45-1.89-.59-2.48-2.79-2.48h-3.21V401c0,2.07.57,2.35,2.37,2.37h2.19c1.65,0,2.07-.25,2.82-1.18a11,11,0,0,0,1.4-2.61Z" transform="translate(0)"/><path class="cls-1" d="M157.61,389.05a6.81,6.81,0,0,0-1.06-2.47c-.51-.79-.9-1.06-2.53-1.06h-2.91v15.11c0,2.46.27,2.74,2.72,3.12v.43h-8.49v-.43c2.35-.46,2.61-.63,2.61-3.12V385.52h-3.11c-1.43,0-1.76.41-2.17,1a9.26,9.26,0,0,0-1.16,2.6H141c.17-1.62.32-3.49.39-5h.38c.45.58.83.6,1.75.6H155.8a1.9,1.9,0,0,0,1.68-.6h.38c0,1.3.07,3.33.22,4.9Z" transform="translate(0)"/><path class="cls-1" d="M190.34,399.63c-.15,1-.69,3.77-.9,4.55H175.16v-.43c2.6-.36,2.8-.54,2.8-3.13V388.31c0-2.65-.13-2.87-2.33-3.19v-.44h8.88c2.81,0,3.89,0,4.24-.06,0,1.11.14,3.12.27,4.26l-.46.08a8.72,8.72,0,0,0-1.16-2.55c-.55-.72-1.11-.86-2.88-.86h-2.6c-.7,0-.79.11-.79.8v7.09h3.19c2.25,0,2.41-.56,2.81-2.48h.44v5.84h-.44c-.46-1.89-.59-2.48-2.79-2.48h-3.21V401c0,2.07.57,2.35,2.37,2.37h2.19c1.65,0,2.07-.25,2.82-1.18a11,11,0,0,0,1.4-2.61Z" transform="translate(0)"/><path class="cls-1" d="M225.93,404.37h-1.28c-3.23-.15-4.06-.7-5.14-2.3s-2.14-3.47-3.13-5.31c-.7-1.28-1.11-1.58-2.31-1.58h-.73v5.43c0,2.45.2,2.72,2.48,3.15v.43h-8.08v-.43c2.26-.44,2.47-.64,2.47-3.15V388.23c0-2.45-.19-2.75-2.47-3.11v-.44h7.75c2.32,0,3.86.3,5,1.13a4.24,4.24,0,0,1,1.81,3.6c0,2.83-2.08,4.3-3.82,5,.49.88,2,3.47,2.86,4.82a25.75,25.75,0,0,0,2.3,3.3A3.85,3.85,0,0,0,226,404Zm-11.56-9.86c1.46,0,2.43-.09,3.2-.75,1-.8,1.33-1.92,1.33-3.68,0-3.4-1.76-4.74-3.76-4.74a2.82,2.82,0,0,0-1.46.23c-.23.16-.34.4-.34,1.12v7.82Z" transform="translate(0)"/><path class="cls-1" d="M261.66,385.12c-2,.44-2.38.78-2.44,2.82,0,.88-.1,1.56-.1,4.5v12.13h-.65L245,388.24v8c0,2.82,0,3.71.09,4.69.1,1.94.38,2.43,3,2.82v.43h-6.88v-.43c2.24-.4,2.56-.78,2.66-2.77.05-1,.13-2.12.13-4.74V388a2.33,2.33,0,0,0-.46-1.47,3.47,3.47,0,0,0-2.67-1.43v-.44h5.19L258.18,399v-6.57c0-2.94-.07-3.6-.11-4.5-.1-2-.69-2.5-3.26-2.82v-.44h6.85Z" transform="translate(0)"/><path class="cls-1" d="M288.56,404.18v-.43c1.92-.4,2.1-.7,1.62-2.09-.37-1.1-1-2.88-1.69-4.84h-5.68c-.56,1.57-1.07,3-1.46,4.19-.68,2-.37,2.27,2.12,2.74v.43h-6.42v-.43c1.87-.32,2.31-.65,3.38-3.37l6.22-16,.67-.1c1.88,5.37,3.83,10.68,5.82,16,1,2.79,1.33,3,3.18,3.39v.43Zm-2.83-15.35c-.94,2.51-1.71,4.75-2.58,7.06h5Z" transform="translate(0)"/><path class="cls-1" d="M340.84,399.48a31.46,31.46,0,0,1-1.49,4.46,24.9,24.9,0,0,1-5.06.69c-7.63,0-11-4.87-11-10.12,0-6.05,4.43-10.25,11.38-10.25a32.33,32.33,0,0,1,5.27.62c.09,1.47.27,3.24.43,4.47l-.52.11c-.58-2-1.22-3.23-2.9-4a7.62,7.62,0,0,0-3.08-.53c-4.78,0-6.91,4.11-6.91,9,0,5.86,2.8,9.95,7.56,9.95,3,0,4.51-1.76,5.81-4.59Z" transform="translate(0)"/><path class="cls-1" d="M368.26,404.18v-.43c1.93-.4,2.1-.7,1.63-2.09-.37-1.1-1-2.88-1.69-4.84h-5.68c-.56,1.57-1.07,3-1.47,4.19-.67,2-.36,2.27,2.13,2.74v.43h-6.42v-.43c1.87-.32,2.3-.65,3.37-3.37l6.23-16,.67-.1c1.88,5.37,3.83,10.68,5.82,16,1,2.79,1.33,3,3.18,3.39v.43Zm-2.83-15.35c-.94,2.51-1.7,4.75-2.57,7.06h5Z" transform="translate(0)"/><path class="cls-1" d="M406.86,399.42c-.23,1.19-1,4.09-1.2,4.76H391.79v-.43c2.65-.38,2.8-.62,2.8-3.16V388.25c0-2.6-.23-2.77-2.53-3.13v-.44h8.14v.44c-2.24.41-2.45.59-2.45,3.13V401.2c0,2,.46,2.13,2.14,2.13h1.87c1.67,0,2.2-.17,3-1a11.16,11.16,0,0,0,1.68-3Z" transform="translate(0)"/><path class="cls-1" d="M424,404.18v-.43c2.3-.41,2.48-.64,2.48-3.26V388.37c0-2.69-.21-2.9-2.48-3.25v-.44h8.14v.44c-2.27.37-2.5.54-2.5,3.25v12.1c0,2.67.19,2.87,2.5,3.28v.43Z" transform="translate(0)"/><path class="cls-1" d="M458.52,384.68c3.69,0,6.46.84,8.27,2.53a8.46,8.46,0,0,1,2.61,6.48,9.72,9.72,0,0,1-3.61,8,12,12,0,0,1-7.72,2.45h-8v-.43c2.24-.4,2.48-.6,2.48-3.16v-12.3c0-2.59-.26-2.82-2.48-3.17v-.44ZM455.68,400c0,2.56,1,3.32,3.52,3.32,4.44,0,6.6-3.31,6.6-9.15,0-3.22-1-5.91-3-7.38a6.87,6.87,0,0,0-4.7-1.45,4.08,4.08,0,0,0-2.11.4c-.34.23-.4.65-.4,1.72Z" transform="translate(0)"/><path class="cls-1" d="M497,404.18v-.43c1.93-.4,2.1-.7,1.63-2.09-.38-1.1-1-2.88-1.69-4.84h-5.68c-.57,1.57-1.08,3-1.47,4.19-.68,2-.36,2.27,2.13,2.74v.43h-6.43v-.43c1.88-.32,2.31-.65,3.38-3.37l6.22-16,.68-.1c1.88,5.37,3.83,10.68,5.82,16,1,2.79,1.33,3,3.18,3.39v.43Zm-2.83-15.35c-.94,2.51-1.7,4.75-2.57,7.06h5Z" transform="translate(0)"/><path class="cls-1" d="M529.32,384.68c3.68,0,6.46.84,8.27,2.53a8.46,8.46,0,0,1,2.61,6.48,9.72,9.72,0,0,1-3.61,8,12,12,0,0,1-7.72,2.45h-8v-.43c2.24-.4,2.48-.6,2.48-3.16v-12.3c0-2.59-.26-2.82-2.48-3.17v-.44ZM526.48,400c0,2.56,1,3.32,3.51,3.32,4.45,0,6.61-3.31,6.61-9.15,0-3.22-1-5.91-3-7.38a6.89,6.89,0,0,0-4.7-1.45,4.06,4.06,0,0,0-2.11.4c-.34.23-.4.65-.4,1.72Z" transform="translate(0)"/></g></g></svg>