<svg xmlns="http://www.w3.org/2000/svg" viewBox="0 0 77.56 6.67"><defs><style>.cls-1{fill:#fff;}</style></defs><g id="Capa_2" data-name="Capa 2"><g id="Capa_1-2" data-name="Capa 1"><path class="cls-1" d="M6.3,4.88a3,3,0,0,1-3,3.05,3,3,0,0,1-3-3,3,3,0,1,1,6,0Zm-5.46,0a2.53,2.53,0,0,0,2.5,2.61A2.51,2.51,0,0,0,5.81,4.88,2.53,2.53,0,0,0,3.33,2.26,2.54,2.54,0,0,0,.84,4.91Zm3.7-1.15a2.1,2.1,0,0,0-1-.23A1.27,1.27,0,0,0,2.21,4.91,1.31,1.31,0,0,0,3.6,6.3a1.9,1.9,0,0,0,1-.26l.12.37a2.23,2.23,0,0,1-1.21.31A1.7,1.7,0,0,1,1.7,4.94,1.81,1.81,0,0,1,3.58,3.11a2,2,0,0,1,1.08.27Z" transform="translate(-0.35 -1.7)"/><path class="cls-1" d="M12.49,8.22V8c.63-.08.71-.18.58-.55s-.33-.88-.54-1.5H10.41L10,7.13c-.22.64-.08.72.73.82v.27H8.43V8c.62-.08.77-.15,1.12-1l2-5.16.32-.06,1.91,5.23c.32.86.4.94,1.1,1v.27ZM11.5,3c-.31.85-.65,1.74-.94,2.52H12.4Z" transform="translate(-0.35 -1.7)"/><path class="cls-1" d="M18.66,4.76c.95.16,1.71.61,1.71,1.57a1.7,1.7,0,0,1-.95,1.51,3.29,3.29,0,0,1-1.7.38H15.3V8c.84-.08.89-.17.89-1V3.06c0-.81-.09-.88-.89-1V1.83h2.58a2.55,2.55,0,0,1,1.51.35A1.26,1.26,0,0,1,20,3.28,1.57,1.57,0,0,1,18.66,4.76Zm-1.13-.12c1.09,0,1.53-.43,1.53-1.23s-.43-1.22-1.37-1.22a1,1,0,0,0-.55.1c-.08.06-.11.16-.11.48V4.64ZM17,7c0,.71.17.89.87.89a1.38,1.38,0,0,0,1.51-1.45c0-1-.71-1.43-1.91-1.43H17Z" transform="translate(-0.35 -1.7)"/><path class="cls-1" d="M24.84,8.22V8c.64-.08.72-.18.58-.55s-.32-.88-.53-1.5H22.77c-.16.44-.31.83-.44,1.23-.22.64-.08.72.72.82v.27H20.78V8c.62-.08.78-.15,1.12-1l2-5.16.31-.06c.62,1.68,1.3,3.53,1.92,5.23.31.86.4.94,1.1,1v.27ZM23.86,3,22.92,5.5h1.83Z" transform="translate(-0.35 -1.7)"/><path class="cls-1" d="M30.39,1.83a3.91,3.91,0,0,1,2.87.86,2.85,2.85,0,0,1,.84,2.1,3.26,3.26,0,0,1-1.23,2.66A4.68,4.68,0,0,1,30,8.22h-2.3V8c.84-.08.88-.15.88-1V3.07c0-.84-.11-.88-.88-1V1.83Zm-1,5.09c0,.73.31.94,1.05.94,1.77,0,2.67-1.21,2.67-2.93A2.55,2.55,0,0,0,32,2.57a3.14,3.14,0,0,0-1.68-.39,1.33,1.33,0,0,0-.77.14c-.09.06-.13.16-.13.55Z" transform="translate(-0.35 -1.7)"/><path class="cls-1" d="M37.78,1.83a3.93,3.93,0,0,1,2.87.86,2.84,2.84,0,0,1,.83,2.1,3.23,3.23,0,0,1-1.23,2.66,4.66,4.66,0,0,1-2.91.77H35.05V8c.84-.08.88-.15.88-1V3.07c0-.84-.12-.88-.88-1V1.83Zm-1,5.09c0,.73.31.94,1.05.94,1.77,0,2.67-1.21,2.67-2.93a2.55,2.55,0,0,0-1.14-2.36,3.14,3.14,0,0,0-1.68-.39,1.4,1.4,0,0,0-.78.14c-.09.06-.12.16-.12.55Z" transform="translate(-0.35 -1.7)"/><path class="cls-1" d="M45.89,1.7a3.15,3.15,0,0,1,3.18,3.24,3.25,3.25,0,1,1-6.5.15A3.28,3.28,0,0,1,45.89,1.7Zm-.2.36c-1.1,0-2.1.92-2.1,2.76S44.59,8,46,8c1.19,0,2.08-.89,2.08-2.79C48.07,3.15,47,2.06,45.69,2.06Z" transform="translate(-0.35 -1.7)"/><path class="cls-1" d="M56.81,2.11c-.62.07-.83.17-.86.62s0,.73,0,1.64V8.31h-.37L51.34,3.17V5.63c0,.88,0,1.32,0,1.61,0,.5.27.65,1,.71v.27H50V8c.6,0,.84-.2.88-.68,0-.32,0-.76,0-1.65V3.11a.86.86,0,0,0-.2-.65c-.18-.24-.39-.3-.87-.35V1.83h1.47l4.17,5V4.37c0-.91,0-1.34,0-1.63,0-.44-.26-.58-1-.63V1.83h2.42Z" transform="translate(-0.35 -1.7)"/><path class="cls-1" d="M63.78,6.92c-.13.44-.3.94-.4,1.3h-3.7V8c.54-.53,1.13-1.11,1.61-1.67A4,4,0,0,0,62.5,4c0-.82-.43-1.29-1.15-1.29A1.72,1.72,0,0,0,60,3.57l-.22-.2.56-.8A1.78,1.78,0,0,1,61.67,2a1.6,1.6,0,0,1,1.67,1.7,3.17,3.17,0,0,1-1.23,2.38c-.43.44-1,1-1.47,1.44h1.88c.53,0,.68,0,1-.66Z" transform="translate(-0.35 -1.7)"/><path class="cls-1" d="M66.52,2c1.47,0,2,1.65,2,3.18s-.55,3.18-2,3.18-2.06-1.62-2.06-3.17S65,2,66.52,2Zm0,.35c-.92,0-1.14,1.44-1.14,2.82S65.65,8,66.52,8s1.12-1.47,1.12-2.84S67.39,2.33,66.52,2.33Z" transform="translate(-0.35 -1.7)"/><path class="cls-1" d="M73.3,6.92c-.12.44-.29.94-.39,1.3h-3.7V8c.54-.53,1.13-1.11,1.61-1.67A4,4,0,0,0,72,4c0-.82-.44-1.29-1.15-1.29a1.72,1.72,0,0,0-1.36.91l-.22-.2.56-.8A1.78,1.78,0,0,1,71.2,2a1.6,1.6,0,0,1,1.67,1.7,3.15,3.15,0,0,1-1.24,2.38c-.42.44-1,1-1.46,1.44h1.88c.53,0,.67,0,1-.66Z" transform="translate(-0.35 -1.7)"/><path class="cls-1" d="M77.67,2.1l0,.08-.25.65H75.21c-.09.54-.22,1.3-.31,1.79a4.64,4.64,0,0,1,1.16-.29A1.72,1.72,0,0,1,77.91,6a2.07,2.07,0,0,1-.84,1.65,3,3,0,0,1-1.74.69,1.53,1.53,0,0,1-1-.38c-.13-.13-.17-.21-.15-.34a.52.52,0,0,1,.2-.33.21.21,0,0,1,.28,0,1.74,1.74,0,0,0,1.24.54,1.29,1.29,0,0,0,1.22-1.45A1.42,1.42,0,0,0,75.47,4.9a2.91,2.91,0,0,0-1,.18l0,0c.15-.77.37-2.15.47-2.94Z" transform="translate(-0.35 -1.7)"/></g></g></svg>