<svg xmlns="http://www.w3.org/2000/svg" viewBox="0 0 191.32 9.83"><defs><style>.cls-1{fill:#fff;}</style></defs><g id="Capa_2" data-name="Capa 2"><g id="Capa_1-2" data-name="Capa 1"><path class="cls-1" d="M6.3,4.88a3,3,0,0,1-3,3.05,3,3,0,0,1-3-3,3,3,0,1,1,6,0Zm-5.46,0a2.53,2.53,0,0,0,2.5,2.61A2.51,2.51,0,0,0,5.81,4.88,2.53,2.53,0,0,0,3.33,2.26,2.54,2.54,0,0,0,.84,4.91Zm3.7-1.15a2.1,2.1,0,0,0-1-.23A1.27,1.27,0,0,0,2.21,4.91,1.31,1.31,0,0,0,3.6,6.3a1.9,1.9,0,0,0,1-.26l.12.37a2.23,2.23,0,0,1-1.21.31A1.7,1.7,0,0,1,1.7,4.94,1.81,1.81,0,0,1,3.58,3.11a2,2,0,0,1,1.08.27Z" transform="translate(-0.35 -0.85)"/><path class="cls-1" d="M10.4,8.22V8c.64-.08.72-.18.58-.55s-.32-.88-.53-1.5H8.33L7.89,7.13c-.22.64-.08.72.72.82v.27H6.34V8c.62-.08.78-.15,1.12-1l2-5.16.31-.06c.62,1.68,1.3,3.53,1.92,5.23.31.86.4.94,1.1,1v.27ZM9.42,3c-.31.85-.65,1.74-.94,2.52h1.83Z" transform="translate(-0.35 -0.85)"/><path class="cls-1" d="M16.58,4.76c.94.16,1.71.61,1.71,1.57a1.7,1.7,0,0,1-.95,1.51,3.29,3.29,0,0,1-1.7.38H13.22V8c.84-.08.88-.17.88-1V3.06c0-.81-.08-.88-.88-1V1.83h2.57a2.61,2.61,0,0,1,1.52.35,1.29,1.29,0,0,1,.58,1.1A1.57,1.57,0,0,1,16.58,4.76Zm-1.13-.12c1.08,0,1.52-.43,1.52-1.23s-.42-1.22-1.36-1.22a1,1,0,0,0-.55.1c-.08.06-.11.16-.11.48V4.64ZM15,7c0,.71.17.89.86.89a1.38,1.38,0,0,0,1.52-1.45c0-1-.71-1.43-1.91-1.43H15Z" transform="translate(-0.35 -0.85)"/><path class="cls-1" d="M22.76,8.22V8c.64-.08.72-.18.58-.55s-.33-.88-.53-1.5H20.69c-.16.44-.31.83-.45,1.23-.21.64-.07.72.73.82v.27H18.7V8c.62-.08.78-.15,1.12-1l2-5.16.31-.06c.62,1.68,1.3,3.53,1.92,5.23.31.86.4.94,1.1,1v.27ZM21.78,3c-.32.85-.65,1.74-1,2.52h1.84Z" transform="translate(-0.35 -0.85)"/><path class="cls-1" d="M28.31,1.83a3.93,3.93,0,0,1,2.87.86A2.84,2.84,0,0,1,32,4.79a3.26,3.26,0,0,1-1.22,2.66,4.7,4.7,0,0,1-2.91.77h-2.3V8c.84-.08.88-.15.88-1V3.07c0-.84-.12-.88-.88-1V1.83Zm-1,5.09c0,.73.31.94,1.05.94C30.14,7.86,31,6.65,31,4.93A2.55,2.55,0,0,0,29.9,2.57a3.14,3.14,0,0,0-1.68-.39,1.4,1.4,0,0,0-.78.14c-.08.06-.12.16-.12.55Z" transform="translate(-0.35 -0.85)"/><path class="cls-1" d="M35.7,1.83a3.88,3.88,0,0,1,2.86.86,2.81,2.81,0,0,1,.84,2.1,3.23,3.23,0,0,1-1.23,2.66,4.68,4.68,0,0,1-2.91.77H33V8c.85-.08.89-.15.89-1V3.07c0-.84-.12-.88-.89-1V1.83Zm-1,5.09c0,.73.32.94,1,.94,1.77,0,2.68-1.21,2.68-2.93a2.57,2.57,0,0,0-1.14-2.36,3.17,3.17,0,0,0-1.68-.39,1.4,1.4,0,0,0-.78.14c-.09.06-.13.16-.13.55Z" transform="translate(-0.35 -0.85)"/><path class="cls-1" d="M43.81,1.7A3.15,3.15,0,0,1,47,4.94a3.25,3.25,0,1,1-6.5.15A3.28,3.28,0,0,1,43.81,1.7Zm-.2.36c-1.1,0-2.1.92-2.1,2.76S42.51,8,43.91,8C45.1,8,46,7.11,46,5.21,46,3.15,44.9,2.06,43.61,2.06Z" transform="translate(-0.35 -0.85)"/><path class="cls-1" d="M54.73,2.11c-.63.07-.83.17-.86.62s0,.73,0,1.64V8.31h-.38l-4.2-5.14V5.63c0,.88,0,1.32.05,1.61,0,.5.26.65,1,.71v.27H47.89V8c.61,0,.85-.2.89-.68,0-.32,0-.76,0-1.65V3.11a.86.86,0,0,0-.2-.65c-.19-.24-.39-.3-.87-.35V1.83h1.47l4.17,5V4.37c0-.91,0-1.34,0-1.63,0-.44-.26-.58-1-.63V1.83h2.42Z" transform="translate(-0.35 -0.85)"/><path class="cls-1" d="M61.7,6.92c-.13.44-.3.94-.4,1.3H57.6V8c.54-.53,1.13-1.11,1.61-1.67A4,4,0,0,0,60.42,4c0-.82-.43-1.29-1.15-1.29a1.72,1.72,0,0,0-1.36.91l-.22-.2.56-.8A1.78,1.78,0,0,1,59.59,2a1.6,1.6,0,0,1,1.67,1.7A3.15,3.15,0,0,1,60,6.06c-.42.44-1,1-1.46,1.44h1.88c.53,0,.68,0,1-.66Z" transform="translate(-0.35 -0.85)"/><path class="cls-1" d="M64.43,2c1.48,0,2,1.65,2,3.18s-.55,3.18-2,3.18-2.05-1.62-2.05-3.17S62.94,2,64.43,2Zm0,.35c-.91,0-1.14,1.44-1.14,2.82S63.57,8,64.43,8s1.12-1.47,1.12-2.84S65.31,2.33,64.43,2.33Z" transform="translate(-0.35 -0.85)"/><path class="cls-1" d="M71.22,6.92c-.13.44-.29.94-.39,1.3H67.12V8c.55-.53,1.13-1.11,1.62-1.67A4,4,0,0,0,70,4c0-.82-.44-1.29-1.15-1.29a1.72,1.72,0,0,0-1.36.91l-.23-.2.56-.8A1.81,1.81,0,0,1,69.12,2a1.61,1.61,0,0,1,1.67,1.7,3.15,3.15,0,0,1-1.24,2.38c-.42.44-1,1-1.46,1.44H70c.54,0,.68,0,1-.66Z" transform="translate(-0.35 -0.85)"/><path class="cls-1" d="M75.14,6.43v.75c0,.65,0,.7.74.77v.27h-2.3V8c.74-.07.79-.13.79-.78V6.43h-2.6V6.14c.93-1.33,2-2.76,2.93-4.13h.44V6h1v.47ZM74.37,3C73.75,4,73.06,5,72.38,6h2Z" transform="translate(-0.35 -0.85)"/><path class="cls-1" d="M81.36,6.3H79.1l.07-.6h2.26Z" transform="translate(-0.35 -0.85)"/><path class="cls-1" d="M88.62,6.92c-.13.44-.3.94-.4,1.3h-3.7V8c.54-.53,1.13-1.11,1.61-1.67A4,4,0,0,0,87.34,4c0-.82-.43-1.29-1.15-1.29a1.72,1.72,0,0,0-1.36.91l-.22-.2.56-.8A1.78,1.78,0,0,1,86.51,2a1.6,1.6,0,0,1,1.67,1.7A3.17,3.17,0,0,1,87,6.06c-.43.44-1,1-1.47,1.44h1.88c.53,0,.68,0,1-.66Z" transform="translate(-0.35 -0.85)"/><path class="cls-1" d="M91.36,2c1.47,0,2,1.65,2,3.18s-.55,3.18-2,3.18S89.3,6.72,89.3,5.17,89.86,2,91.36,2Zm0,.35c-.92,0-1.14,1.44-1.14,2.82S90.49,8,91.36,8s1.12-1.47,1.12-2.84S92.23,2.33,91.36,2.33Z" transform="translate(-0.35 -0.85)"/><path class="cls-1" d="M98.14,6.92c-.12.44-.29.94-.39,1.3h-3.7V8c.54-.53,1.13-1.11,1.61-1.67A4,4,0,0,0,96.87,4c0-.82-.44-1.29-1.15-1.29a1.72,1.72,0,0,0-1.36.91l-.22-.2.56-.8A1.78,1.78,0,0,1,96,2a1.6,1.6,0,0,1,1.67,1.7,3.15,3.15,0,0,1-1.24,2.38c-.42.44-1,1-1.46,1.44h1.88c.53,0,.67,0,1-.66Z" transform="translate(-0.35 -0.85)"/><path class="cls-1" d="M102.51,2.1l0,.08-.25.65h-2.26c-.09.54-.22,1.3-.31,1.79a4.64,4.64,0,0,1,1.16-.29A1.72,1.72,0,0,1,102.75,6a2.07,2.07,0,0,1-.84,1.65,3,3,0,0,1-1.74.69,1.53,1.53,0,0,1-1-.38C99,7.83,99,7.75,99,7.62a.52.52,0,0,1,.2-.33.21.21,0,0,1,.28,0,1.74,1.74,0,0,0,1.24.54,1.29,1.29,0,0,0,1.22-1.45,1.42,1.42,0,0,0-1.62-1.48,2.91,2.91,0,0,0-1,.18l0,0c.15-.77.37-2.15.47-2.94Z" transform="translate(-0.35 -0.85)"/><path class="cls-1" d="M106.52,10.68V.85h.64v9.83Z" transform="translate(-0.35 -0.85)"/><path class="cls-1" d="M116.9,2.11c-.66.09-.83.18-1.18,1.06-.27.65-1.63,3.94-2.11,5.16h-.32c-.58-1.58-1.43-3.88-2-5.34-.27-.72-.44-.82-1-.88V1.83h2.5v.28c-.73.08-.77.2-.63.56.25.72,1,2.67,1.58,4.3.52-1.26,1.17-2.87,1.63-4.1.22-.57.1-.66-.7-.76V1.83h2.26Z" transform="translate(-0.35 -0.85)"/><path class="cls-1" d="M119.9,8.22V8c.64-.08.72-.18.58-.55s-.32-.88-.53-1.5h-2.12c-.16.44-.31.83-.45,1.23-.21.64-.07.72.73.82v.27h-2.27V8c.62-.08.78-.15,1.12-1l2-5.16.31-.06c.62,1.68,1.3,3.53,1.92,5.23.31.86.4.94,1.1,1v.27Zm-1-5.24c-.32.85-.65,1.74-1,2.52h1.84Z" transform="translate(-0.35 -0.85)"/><path class="cls-1" d="M127.1,3.38a4.31,4.31,0,0,0-.31-.82c-.16-.26-.26-.33-.8-.33h-1V7c0,.77.08.88,1,.94v.27h-2.86V8c.92-.06,1-.16,1-.94V2.23h-.89c-.54,0-.7.06-.87.35a5.45,5.45,0,0,0-.32.8h-.29c0-.6.11-1.22.14-1.77h.23c.15.23.25.22.53.22h3.89a.5.5,0,0,0,.5-.22h.24c0,.46,0,1.17.09,1.74Z" transform="translate(-0.35 -0.85)"/><path class="cls-1" d="M133.13,8.22V8c.57-.06.63-.13.63-.8V5.53c0-.69-.25-1.15-.89-1.15a1.76,1.76,0,0,0-1.1.51v2.3c0,.68.06.7.64.76v.27h-2.12V8c.65-.07.71-.11.71-.76v-2c0-.64-.07-.67-.6-.76V4.15a5,5,0,0,0,1.37-.39v.78l.67-.46a1.57,1.57,0,0,1,.82-.29c.78,0,1.28.58,1.28,1.53V7.19c0,.67.05.7.63.76v.27Z" transform="translate(-0.35 -0.85)"/><path class="cls-1" d="M137.93,3.79A2.12,2.12,0,0,1,140.08,6a2.21,2.21,0,0,1-2.15,2.35,2.16,2.16,0,0,1-2.18-2.19A2.25,2.25,0,0,1,137.93,3.79Zm-.11.33c-.6,0-1.14.58-1.14,1.72S137.23,8,138,8c.61,0,1.12-.45,1.12-1.79C139.15,5.06,138.68,4.12,137.82,4.12Z" transform="translate(-0.35 -0.85)"/><path class="cls-1" d="M141.39,8.36a.59.59,0,0,1-.6-.63.6.6,0,0,1,.6-.63.62.62,0,0,1,.62.63A.61.61,0,0,1,141.39,8.36Z" transform="translate(-0.35 -0.85)"/><path class="cls-1" d="M148.54,4.76c1,.16,1.71.61,1.71,1.57a1.7,1.7,0,0,1-.95,1.51,3.29,3.29,0,0,1-1.7.38h-2.42V8c.84-.08.89-.17.89-1V3.06c0-.81-.09-.88-.89-1V1.83h2.58a2.57,2.57,0,0,1,1.51.35,1.29,1.29,0,0,1,.58,1.1A1.57,1.57,0,0,1,148.54,4.76Zm-1.13-.12c1.08,0,1.53-.43,1.53-1.23s-.43-1.22-1.37-1.22a1,1,0,0,0-.55.1c-.08.06-.11.16-.11.48V4.64ZM146.91,7c0,.71.17.89.87.89a1.38,1.38,0,0,0,1.51-1.45c0-1-.71-1.43-1.91-1.43h-.47Z" transform="translate(-0.35 -0.85)"/><path class="cls-1" d="M153.35,6.3h-2.26l.07-.6h2.26Z" transform="translate(-0.35 -0.85)"/><path class="cls-1" d="M158.42,2.23c-.94,2-1.85,4-2.81,6l-.7.07-.07-.11a56.05,56.05,0,0,0,2.88-5.37h-2.11c-.64,0-.67.09-.94.73h-.3c.09-.55.13-1,.18-1.46h3.81Z" transform="translate(-0.35 -0.85)"/><path class="cls-1" d="M161.13,2a1.51,1.51,0,0,1,1.61,1.46,1.18,1.18,0,0,1-.28.79,7,7,0,0,1-.82.63c.68.37,1.35.85,1.35,1.7a1.87,1.87,0,0,1-2,1.78,1.69,1.69,0,0,1-1.9-1.62,1.14,1.14,0,0,1,.45-1,7.68,7.68,0,0,1,.89-.61,1.83,1.83,0,0,1-1.1-1.55A1.66,1.66,0,0,1,161.13,2Zm0,6a1,1,0,0,0,1.06-1.15c0-.79-.65-1.17-1.45-1.56a1.51,1.51,0,0,0-.82,1.35A1.22,1.22,0,0,0,161.13,8ZM161,2.31a.91.91,0,0,0-.9,1c0,.72.48,1,1.25,1.38A1.42,1.42,0,0,0,162,3.49C162,2.66,161.52,2.31,161,2.31Z" transform="translate(-0.35 -0.85)"/><path class="cls-1" d="M167.85,6.92c-.13.44-.29.94-.39,1.3h-3.71V8c.55-.53,1.13-1.11,1.62-1.67A4,4,0,0,0,166.58,4c0-.82-.44-1.29-1.15-1.29a1.72,1.72,0,0,0-1.36.91l-.23-.2.56-.8A1.81,1.81,0,0,1,165.75,2a1.61,1.61,0,0,1,1.67,1.7,3.15,3.15,0,0,1-1.24,2.38c-.42.44-1,1-1.46,1.44h1.87c.54,0,.68,0,1-.66Z" transform="translate(-0.35 -0.85)"/><path class="cls-1" d="M172.71,2.23c-.94,2-1.85,4-2.81,6l-.7.07-.07-.11A56.05,56.05,0,0,0,172,2.83H169.9c-.63,0-.67.09-.94.73h-.3c.09-.55.13-1,.18-1.46h3.82Z" transform="translate(-0.35 -0.85)"/><path class="cls-1" d="M175,4.52a1.39,1.39,0,0,1,.63-.17,1.75,1.75,0,0,1,1.76,1.82,2.08,2.08,0,0,1-2,2.17,2.18,2.18,0,0,1-2.05-2.46A4,4,0,0,1,176,2.18a8.43,8.43,0,0,1,1.11-.26l.06.33a6,6,0,0,0-1.07.33,3.13,3.13,0,0,0-1.8,2.27Zm.24.39a2,2,0,0,0-1,.28,4.13,4.13,0,0,0-.05.66c0,1.23.46,2.14,1.29,2.14s1-.81,1-1.47S176.13,4.91,175.24,4.91Z" transform="translate(-0.35 -0.85)"/><path class="cls-1" d="M178.26,3.16l.46-.62A1.76,1.76,0,0,1,180,2a1.35,1.35,0,0,1,1.49,1.31,1.08,1.08,0,0,1-.31.73,4.67,4.67,0,0,1-.7.53,1.61,1.61,0,0,1,1.46,1.51c0,1.6-1.89,2.28-2.59,2.28a1.64,1.64,0,0,1-1-.34.44.44,0,0,1-.15-.33.57.57,0,0,1,.23-.37.19.19,0,0,1,.26,0,1.8,1.8,0,0,0,1.21.52c.71,0,1.21-.53,1.21-1.49a1.2,1.2,0,0,0-1.29-1.25,2.39,2.39,0,0,0-.66.11l-.07-.3c.87-.28,1.58-.68,1.58-1.4a.86.86,0,0,0-.94-.92,1.56,1.56,0,0,0-1.23.78Z" transform="translate(-0.35 -0.85)"/><path class="cls-1" d="M186.06,6.43v.75c0,.65,0,.7.74.77v.27h-2.3V8c.74-.07.79-.13.79-.78V6.43h-2.6V6.14c.93-1.33,1.95-2.76,2.93-4.13h.44V6h1v.47ZM185.29,3C184.67,4,184,5,183.3,6h2Z" transform="translate(-0.35 -0.85)"/><path class="cls-1" d="M191.67,6.92c-.13.44-.29.94-.39,1.3h-3.71V8c.54-.53,1.13-1.11,1.61-1.67A4,4,0,0,0,190.39,4c0-.82-.43-1.29-1.15-1.29a1.7,1.7,0,0,0-1.35.91l-.23-.2.56-.8A1.81,1.81,0,0,1,189.57,2a1.61,1.61,0,0,1,1.67,1.7A3.19,3.19,0,0,1,190,6.06c-.42.44-1,1-1.46,1.44h1.87c.53,0,.68,0,1-.66Z" transform="translate(-0.35 -0.85)"/></g></g></svg>