<svg xmlns="http://www.w3.org/2000/svg" viewBox="0 0 767.46 33.68"><defs><style>.cls-1{fill:#1c1c1b;}</style></defs><g id="Capa_2" data-name="Capa 2"><g id="PTOTECCION-AUREA"><path class="cls-1" d="M4.56,19.45C6,20,8,21.56,8,23.44,8,24.54,7.36,25.5,5.4,27c-1.61,1.21-2.95,2.29-2.95,3.34S3.27,32,4.41,32c2.09,0,3.55-2,3.92-2A1.64,1.64,0,0,1,9.6,31.48a1.42,1.42,0,0,1-.55,1.05,4.8,4.8,0,0,1-3.21,1.15,5,5,0,0,1-4.58-5c0-1.21.28-2.21,2.07-3.63,1.42-1.13,2.19-1.93,2.19-2.86A3.49,3.49,0,0,0,4.29,19.8Zm1-6a1.73,1.73,0,0,1,1.73,1.84A1.76,1.76,0,0,1,5.52,17.1a1.78,1.78,0,0,1-1.76-1.83A1.75,1.75,0,0,1,5.52,13.43Z" transform="translate(-1.26 0)"/><path class="cls-1" d="M21.66,6.51a9.56,9.56,0,0,1,9.57,10c0,6.28-4.39,10.41-9.88,10.41a9.68,9.68,0,0,1-9.72-10C11.63,11.73,15.15,6.51,21.66,6.51Zm-.61.72c-3.35,0-5.73,3.26-5.73,8.92S17.81,26.2,21.93,26.2c3.71,0,5.61-3.16,5.61-8.9C27.54,11,25.07,7.23,21.05,7.23Zm2.51,17.9a58.38,58.38,0,0,0,8.21,5.28l-.16.39a13,13,0,0,1-4.25-.26c-2.08-.63-4.8-2.67-7-4.33Z" transform="translate(-1.26 0)"/><path class="cls-1" d="M68.73,7.37c-2.29.3-2.33,1-2.42,2.36,0,.84-.12,1.9-.12,4.29v3.71c0,3-.28,5.39-2,7.17a7.16,7.16,0,0,1-5.41,2,8,8,0,0,1-5.09-1.52c-1.71-1.4-2.3-3.27-2.3-6.5V11c0-2.92-.18-3.21-2.42-3.58V6.93h8v.44c-2.28.42-2.41.66-2.41,3.58v8c0,4.17,1.81,6.4,5.48,6.4,4,0,5.15-2.27,5.15-7.57V14c0-2.38,0-3.47-.13-4.39-.11-1.49-.43-2-3-2.25V6.93h6.65Z" transform="translate(-1.26 0)"/><path class="cls-1" d="M100.71,21.88c-.15,1-.69,3.77-.9,4.55H85.53V26c2.6-.36,2.8-.53,2.8-3.12V10.56c0-2.66-.13-2.88-2.33-3.19V6.93h8.88c2.81,0,3.89,0,4.24-.06,0,1.11.14,3.11.27,4.26l-.46.08a8.46,8.46,0,0,0-1.16-2.55c-.55-.72-1.1-.86-2.87-.86H92.29c-.69,0-.79.11-.79.79v7.1h3.19c2.25,0,2.41-.57,2.81-2.48h.44v5.84H97.5c-.46-1.89-.59-2.48-2.79-2.48H91.5v6.64c0,2.07.57,2.34,2.37,2.36h2.19c1.65,0,2.07-.25,2.82-1.17a11,11,0,0,0,1.4-2.61ZM92.33,4.81,97.11.22a5.75,5.75,0,0,1,1.77,1.53l0,.21L92.61,5.21Z" transform="translate(-1.26 0)"/><path class="cls-1" d="M142.61,6.93c3.68,0,6.46.84,8.27,2.53a8.46,8.46,0,0,1,2.6,6.48,9.71,9.71,0,0,1-3.61,8,12,12,0,0,1-7.71,2.46h-8V26c2.23-.39,2.47-.59,2.47-3.15V10.54c0-2.59-.26-2.82-2.47-3.17V6.93Zm-2.84,15.36c0,2.55.95,3.32,3.51,3.32,4.45,0,6.6-3.31,6.6-9.15,0-3.22-1-5.91-3-7.38a6.92,6.92,0,0,0-4.71-1.45,4,4,0,0,0-2.1.4c-.34.23-.4.64-.4,1.72Z" transform="translate(-1.26 0)"/><path class="cls-1" d="M186.44,21.88c-.15,1-.69,3.77-.89,4.55H171.27V26c2.6-.36,2.8-.53,2.8-3.12V10.56c0-2.66-.13-2.88-2.33-3.19V6.93h8.88c2.81,0,3.89,0,4.24-.06,0,1.11.14,3.11.27,4.26l-.46.08a8.72,8.72,0,0,0-1.16-2.55c-.55-.72-1.11-.86-2.88-.86H178c-.7,0-.8.11-.8.79v7.1h3.2c2.25,0,2.4-.57,2.8-2.48h.45v5.84h-.45c-.45-1.89-.58-2.48-2.78-2.48h-3.22v6.64c0,2.07.58,2.34,2.38,2.36h2.19c1.65,0,2.07-.25,2.82-1.17A10.63,10.63,0,0,0,186,21.79Z" transform="translate(-1.26 0)"/><path class="cls-1" d="M213.71,15.62c3.13.5,5.59,2.06,5.59,5a5.14,5.14,0,0,1-2.7,4.59A11.48,11.48,0,0,1,211,26.43h-7.11V26c2.23-.4,2.47-.63,2.47-3.14V10.4c0-2.5-.3-2.61-2.47-3V6.93h8A7.69,7.69,0,0,1,216.55,8a3.82,3.82,0,0,1,1.63,3.19C218.18,14,215.71,15.16,213.71,15.62Zm-2.82-.14c3,0,4-1.23,4-3.71,0-2.72-1.37-4.15-3.58-4.15a2.84,2.84,0,0,0-1.37.23c-.37.19-.42.6-.42,1.53v6.1ZM209.48,23c0,2.14.79,2.75,2.6,2.75,2.12,0,3.68-1.58,3.68-4.8s-1.37-4.75-4.87-4.75h-1.41Z" transform="translate(-1.26 0)"/><path class="cls-1" d="M252.11,21.88c-.15,1-.69,3.77-.89,4.55H236.94V26c2.6-.36,2.8-.53,2.8-3.12V10.56c0-2.66-.13-2.88-2.33-3.19V6.93h8.88c2.81,0,3.89,0,4.24-.06,0,1.11.14,3.11.27,4.26l-.46.08a8.72,8.72,0,0,0-1.16-2.55c-.55-.72-1.11-.86-2.88-.86h-2.61c-.69,0-.79.11-.79.79v7.1h3.2c2.25,0,2.4-.57,2.8-2.48h.45v5.84h-.45c-.45-1.89-.58-2.48-2.78-2.48H242.9v6.64c0,2.07.58,2.34,2.37,2.36h2.19c1.66,0,2.08-.25,2.83-1.17a10.63,10.63,0,0,0,1.39-2.61Z" transform="translate(-1.26 0)"/><path class="cls-1" d="M287.71,26.62h-1.29c-3.22-.15-4.05-.7-5.14-2.3s-2.13-3.47-3.13-5.31c-.7-1.28-1.11-1.58-2.3-1.58h-.74v5.43c0,2.44.2,2.72,2.49,3.14v.44h-8.09V26c2.27-.43,2.48-.64,2.48-3.14V10.48c0-2.45-.19-2.75-2.48-3.11V6.93h7.76c2.31,0,3.85.29,5,1.13a4.21,4.21,0,0,1,1.81,3.59c0,2.83-2.08,4.31-3.82,5.06.49.88,2,3.47,2.87,4.82a25.75,25.75,0,0,0,2.3,3.3,4,4,0,0,0,2.34,1.39Zm-11.57-9.86c1.46,0,2.44-.1,3.2-.75,1-.8,1.34-1.92,1.34-3.68,0-3.41-1.76-4.74-3.77-4.74a2.84,2.84,0,0,0-1.46.23c-.23.16-.34.39-.34,1.12v7.82Z" transform="translate(-1.26 0)"/><path class="cls-1" d="M303.32,26.43V26c2.3-.4,2.48-.63,2.48-3.25V10.62c0-2.69-.21-2.9-2.48-3.25V6.93h8.14v.44c-2.27.37-2.5.54-2.5,3.25v12.1c0,2.67.19,2.86,2.5,3.27v.44ZM306.4,4.59,311.18,0A5.89,5.89,0,0,1,313,1.53v.21L306.68,5Z" transform="translate(-1.26 0)"/><path class="cls-1" d="M338.81,26.43V26c1.93-.39,2.1-.69,1.63-2.08-.38-1.1-1-2.88-1.69-4.84h-5.68c-.56,1.57-1.08,3-1.47,4.18-.68,2-.36,2.27,2.13,2.74v.44H327.3V26c1.88-.32,2.31-.64,3.38-3.37L336.9,6.67l.68-.1c1.88,5.36,3.83,10.68,5.82,16,1,2.79,1.33,3,3.18,3.38v.44ZM336,11.07c-.94,2.51-1.7,4.75-2.57,7.07h5Z" transform="translate(-1.26 0)"/><path class="cls-1" d="M373.42,11.11c-.6-2.36-1.85-3.93-4.31-3.93-1.95,0-3,1.39-3,3.26,0,2,1.13,2.94,3.63,4.42s4.9,3.05,4.9,6.23c0,3.34-2.82,5.79-6.64,5.79a16.2,16.2,0,0,1-4.44-.77c-.18-.65-.63-3.88-.67-4.39l.46-.09c.61,2.34,2.23,4.58,5.11,4.58,2.24,0,3.2-1.62,3.2-3.63s-1.27-3.35-3.39-4.64c-2.54-1.56-4.82-3.06-4.82-6.11s2.38-5.32,6.16-5.32a23.4,23.4,0,0,1,3.75.42c.12,1.09.29,2.66.5,4.09Z" transform="translate(-1.26 0)"/><path class="cls-1" d="M416.35,6.93a8.59,8.59,0,0,1,5,1.21,4.85,4.85,0,0,1,2.08,4.19c0,4.2-3.64,6-6.56,6a3.72,3.72,0,0,1-.66-.08l-1.87-.42v5c0,2.55.29,2.75,2.64,3.09v.44h-8.28V26c2.28-.35,2.47-.56,2.47-3.12V10.52c0-2.63-.23-2.8-2.45-3.15V6.93Zm-2,10.33a5.88,5.88,0,0,0,1.78.2c1.3,0,3.87-.63,3.87-5.1,0-3.48-1.69-4.77-4-4.77a2.68,2.68,0,0,0-1.34.25c-.26.19-.32.55-.32,1.26Z" transform="translate(-1.26 0)"/><path class="cls-1" d="M451.52,6.51a9.68,9.68,0,0,1,9.66,10c0,6.28-4.39,10.41-9.8,10.41a9.74,9.74,0,0,1-9.8-10C441.58,11.65,445.3,6.51,451.52,6.51Zm-.58.72c-3.13,0-5.67,3-5.67,8.9,0,5.71,2.55,10,6.67,10,3.19,0,5.55-3,5.55-8.85C457.49,11,454.85,7.23,450.94,7.23Z" transform="translate(-1.26 0)"/><path class="cls-1" d="M499.41,7.37c-2,.44-2.38.78-2.44,2.82,0,.88-.09,1.56-.09,4.5V26.82h-.66L482.75,10.48v8c0,2.82,0,3.71.09,4.69.1,1.94.39,2.42,3,2.81v.44H479V26c2.24-.39,2.56-.78,2.66-2.76.05-1,.13-2.12.13-4.74V10.27a2.31,2.31,0,0,0-.46-1.47,3.47,3.47,0,0,0-2.67-1.43V6.93h5.2l12.09,14.33V14.69c0-2.94-.07-3.6-.11-4.5-.1-2-.69-2.5-3.26-2.82V6.93h6.85Z" transform="translate(-1.26 0)"/><path class="cls-1" d="M531.68,21.88c-.16,1-.7,3.77-.9,4.55H516.5V26c2.6-.36,2.8-.53,2.8-3.12V10.56c0-2.66-.13-2.88-2.33-3.19V6.93h8.88c2.81,0,3.89,0,4.24-.06,0,1.11.14,3.11.27,4.26l-.46.08a8.72,8.72,0,0,0-1.16-2.55c-.55-.72-1.11-.86-2.88-.86h-2.6c-.7,0-.79.11-.79.79v7.1h3.19c2.25,0,2.41-.57,2.81-2.48h.44v5.84h-.44c-.46-1.89-.59-2.48-2.79-2.48h-3.21v6.64c0,2.07.57,2.34,2.37,2.36H527c1.65,0,2.07-.25,2.82-1.17a11,11,0,0,0,1.4-2.61Z" transform="translate(-1.26 0)"/><path class="cls-1" d="M567.27,26.62H566c-3.22-.15-4.05-.7-5.13-2.3s-2.14-3.47-3.13-5.31c-.7-1.28-1.11-1.58-2.31-1.58h-.73v5.43c0,2.44.2,2.72,2.48,3.14v.44h-8.08V26c2.26-.43,2.47-.64,2.47-3.14V10.48c0-2.45-.19-2.75-2.47-3.11V6.93h7.75c2.32,0,3.86.29,5,1.13a4.22,4.22,0,0,1,1.82,3.59c0,2.83-2.08,4.31-3.83,5.06.5.88,2,3.47,2.87,4.82a25.75,25.75,0,0,0,2.3,3.3,4,4,0,0,0,2.34,1.39Zm-11.56-9.86c1.46,0,2.43-.1,3.19-.75,1-.8,1.34-1.92,1.34-3.68,0-3.41-1.76-4.74-3.76-4.74a2.82,2.82,0,0,0-1.46.23c-.24.16-.34.39-.34,1.12v7.82Z" transform="translate(-1.26 0)"/><path class="cls-1" d="M599.2,11.3a6.57,6.57,0,0,0-1.05-2.47c-.51-.79-.91-1.06-2.53-1.06h-2.91V22.88c0,2.46.27,2.73,2.71,3.11v.44h-8.48V26c2.35-.45,2.61-.62,2.61-3.11V7.77h-3.11c-1.43,0-1.76.4-2.18,1a9,9,0,0,0-1.15,2.6h-.5c.17-1.62.32-3.5.39-5h.38c.46.58.83.6,1.76.6H597.4a1.9,1.9,0,0,0,1.68-.6h.38c0,1.3.06,3.33.21,4.9Z" transform="translate(-1.26 0)"/><path class="cls-1" d="M631.93,21.88c-.15,1-.69,3.77-.89,4.55H616.76V26c2.6-.36,2.8-.53,2.8-3.12V10.56c0-2.66-.13-2.88-2.33-3.19V6.93h8.88c2.81,0,3.89,0,4.24-.06,0,1.11.14,3.11.27,4.26l-.46.08A8.72,8.72,0,0,0,629,8.66c-.55-.72-1.11-.86-2.88-.86h-2.6c-.7,0-.8.11-.8.79v7.1h3.2c2.25,0,2.4-.57,2.8-2.48h.45v5.84h-.45c-.45-1.89-.58-2.48-2.78-2.48h-3.22v6.64c0,2.07.58,2.34,2.38,2.36h2.19c1.65,0,2.07-.25,2.82-1.17a10.63,10.63,0,0,0,1.39-2.61Z" transform="translate(-1.26 0)"/><path class="cls-1" d="M685.75,7.37c-2.3.32-2.51.58-2.51,3.22v12.2c0,2.65.23,2.83,2.51,3.2v.44h-8.14V26c2.31-.33,2.47-.62,2.47-3.2V16.34H671v6.45c0,2.62.25,2.85,2.5,3.2v.44h-8.14V26c2.27-.3,2.48-.56,2.48-3.2V10.59c0-2.71-.24-2.86-2.48-3.22V6.93h8.14v.44c-2.25.35-2.5.55-2.5,3.22v4.83h9.09V10.59c0-2.64-.24-2.89-2.47-3.22V6.93h8.14Z" transform="translate(-1.26 0)"/><path class="cls-1" d="M713.81,6.51a9.68,9.68,0,0,1,9.65,10c0,6.28-4.39,10.41-9.79,10.41a9.74,9.74,0,0,1-9.81-10C703.86,11.65,707.58,6.51,713.81,6.51Zm-.59.72c-3.13,0-5.66,3-5.66,8.9,0,5.71,2.55,10,6.67,10,3.19,0,5.54-3,5.54-8.85C719.77,11,717.13,7.23,713.22,7.23Z" transform="translate(-1.26 0)"/><path class="cls-1" d="M757.79,7.37c-2.06.28-2.31.76-3.27,2.43-1.33,2.36-2.53,4.7-3.85,7.29a2.42,2.42,0,0,0-.32,1.27v4.12c0,2.94.21,3.1,2.62,3.51v.44h-8.4V26c2.44-.35,2.59-.64,2.59-3.51V18.76a2.87,2.87,0,0,0-.36-1.46c-.62-1.28-2.34-4.57-3.77-7.1-1.25-2.25-1.5-2.55-3.26-2.83V6.93h7.68v.44c-2,.37-2,.69-1.5,1.79,1.26,2.47,2.88,5.48,4,7.65,1-2,2.74-5.47,3.57-7.3.59-1.3.58-1.78-1.82-2.14V6.93h6.11Z" transform="translate(-1.26 0)"/><path class="cls-1" d="M765.41,20.78c-1.46-.59-3.46-2.11-3.46-4,0-1.1.66-2.07,2.62-3.52,1.61-1.22,2.95-2.29,2.95-3.34s-.82-1.68-2-1.68c-2.09,0-3.54,2-3.92,2a1.65,1.65,0,0,1-1.27-1.54,1.42,1.42,0,0,1,.55-1,4.75,4.75,0,0,1,3.21-1.16,5,5,0,0,1,4.59,5c0,1.21-.29,2.21-2.08,3.63-1.42,1.13-2.19,1.92-2.19,2.85a3.51,3.51,0,0,0,1.23,2.42Zm-1,6A1.72,1.72,0,0,1,762.72,25a1.76,1.76,0,0,1,1.73-1.83A1.78,1.78,0,0,1,766.21,25,1.74,1.74,0,0,1,764.45,26.79Z" transform="translate(-1.26 0)"/></g></g></svg>